# xmcd
#
# Track frame offsets:
#	182
#	15070
#	32245
#	53920
#	65395
#	78070
#	95995
#	108445
#
# Disc length: 1623 seconds
#
# Revision: 0
# Processed by: cddbd v1.5.2PL0 Copyright (c) Steve Scherf et al.
# Submitted via: dBpowerAMP V4.0
#
DISCID=59065508
DTITLE=Cross The Road - Grab This
DYEAR=1994
DGENRE=Blues
TTITLE0=Bump Shake and Boogie
TTITLE1=Repo man
TTITLE2=Lazy bones
TTITLE3=Sour Belly
TTITLE4=Talking to you
TTITLE5=Sate of mind
TTITLE6=Loosin' Ground
TTITLE7=Too old to die young (Too young to die down)
EXTD=
EXTT0=
EXTT1=
EXTT2=
EXTT3=
EXTT4=
EXTT5=
EXTT6=
EXTT7=
PLAYORDER=
